<svg xmlns="http://www.w3.org/2000/svg" viewBox="0 0 64 64">
  <defs>
    <linearGradient id="bgGrad" x1="0%" y1="0%" x2="100%" y2="100%">
      <stop offset="0%" style="stop-color:#1e293b;stop-opacity:1" />
      <stop offset="100%" style="stop-color:#0f172a;stop-opacity:1" />
    </linearGradient>
  </defs>
  
  <!-- Background -->
  <rect width="64" height="64" rx="12" fill="url(#bgGrad)"/>
  
  <!-- Hammer (svgrepo style) -->
  <g transform="translate(6, 4) scale(0.45)">
    <path fill="#f59e0b" d="M45.2,23.6l-5.1,5.1L27.9,16.6l5.1-5.1c1.4-1.4,3.6-1.4,5,0l7.2,7.2C46.6,20,46.6,22.2,45.2,23.6z"/>
    <path fill="#fbbf24" d="M40.1,28.7l-5.1,5.1L22.8,21.7l5.1-5.1L40.1,28.7z"/>
    <path fill="#92400e" d="M35,33.8L21.7,47.1c-0.8,0.8-2,0.8-2.8,0l-4.2-4.2c-0.8-0.8-0.8-2,0-2.8L28,26.8L35,33.8z"/>
    <path fill="#78350f" d="M28,26.8l-13.3,13.3c-0.8,0.8-0.8,2,0,2.8l1.4,1.4l14.7-14.7L28,26.8z"/>
  </g>
  
  <!-- C++ Logo (official colors) -->
  <g transform="translate(28, 28) scale(0.105)">
    <path fill="#00599C" d="M302.107 258.262c2.401-4.159 3.893-8.845 3.893-13.053V99.14c0-4.208-1.49-8.893-3.892-13.052L153 172.175l149.107 86.087z"/>
    <path fill="#004482" d="m166.25 341.193 126.5-73.034c3.644-2.104 6.956-5.737 9.357-9.897L153 172.175 3.893 258.263c2.401 4.159 5.714 7.793 9.357 9.896l126.5 73.034c7.287 4.208 19.213 4.208 26.5 0z"/>
    <path fill="#659AD2" d="M302.108 86.087c-2.402-4.16-5.715-7.793-9.358-9.897L166.25 3.156c-7.287-4.208-19.213-4.208-26.5 0L13.25 76.19C5.962 80.397 0 90.725 0 99.14v146.069c0 4.208 1.491 8.894 3.893 13.053L153 172.175l149.108-86.088z"/>
    <path fill="#fff" d="M153 274.175c-56.243 0-102-45.757-102-102s45.757-102 102-102c36.292 0 70.139 19.53 88.331 50.968l-44.143 25.544c-9.105-15.736-26.038-25.512-44.188-25.512-28.122 0-51 22.878-51 51 0 28.121 22.878 51 51 51 18.152 0 35.085-9.776 44.191-25.515l44.143 25.543c-18.192 31.441-52.04 50.972-88.334 50.972z"/>
    <path fill="#fff" d="M255 166.508h-11.334v-11.333h-11.332v11.333H221v11.333h11.334v11.334h11.332v-11.334H255zM297.5 166.508h-11.334v-11.333h-11.332v11.333H263.5v11.333h11.334v11.334h11.332v-11.334H297.5z"/>
  </g>
</svg>
